<?xml version="1.0" encoding="UTF-8" standalone="no"?>
<!-- Created with Inkscape (http://www.inkscape.org/) -->
<svg id="svg2" xmlns="http://www.w3.org/2000/svg" height="8" width="16" version="1.0" viewBox="0 0 390 200">
 <g id="layer1" fill-rule="evenodd">
  <path id="path3709" d="m330.82 2.0101l30.69 0.0328c15.72 6.9746 25.37 16.625 25.31 29.855-0.03 7.582-3.37 19.148-10.33 26.441-26.36 17.294-54.58 32.109-82.03 47.721l19.7-29.804 51.01-29.294c4.84-6.402 6.09-11.717 5.34-15.401-1.19-5.813-7.38-9.575-12.41-11.873h-28.79l1.51-17.678z"/>
  <path id="path1933" d="m3.5355 164.14h358.6c0.35 15.68-6.51 28.56-30.3 34.85h-298c-23.648-7.85-30.825-20.28-30.304-34.85z"/>
  <path id="path2822" d="m111.12 148.99c-46.308-35.55-75.509-81.851-74.755-146.98l294.96 0.0001c-4.1 74.769-38.73 114.48-78.78 147.99l-141.42-1.01z"/>
 </g>
</svg>
